#!OML:ASF H:\Terrain\Walking\May29\JustinRory\Justin.ASF
:FULLY-SPECIFIED
:DEGREES
283
root 5.70297 17.6003 13.6353 -180.138 6.25661 -177.404
lowerback 5.18355 -2.76635 -3.83789
upperback 2.64565 -3.71914 1.63032
thorax 0.183966 -1.86019 4.00309
lowerneck -5.05612 -12.1799 -14.4757
upperneck 10.6724 -15.2522 3.46632
head 5.42792 -7.8184 2.20156
rclavicle -3.35946e-014 0
rhumerus -29.9977 -64.915 -11.7422
rradius 30.4987
rwrist -48.093
rhand -13.4052 18.5163
rfingers 7.12502
rthumb 12.7026 -11.0773
lclavicle -3.35946e-014 0
lhumerus -27.8012 58.6843 25.8387
lradius 34.4418
lwrist 39.6487
lhand 2.72833 45.9875
lfingers 7.12502
lthumb 28.2009 73.8858
rfemur -19.0455 3.58134 8.98101
rtibia 36.0799
rfoot -8.15939 -8.14535
rtoes 6.08357
lfemur 0.62039 3.16986 -17.034
ltibia 29.1551
lfoot -23.6965 4.60697
ltoes -7.97009
284
root 5.69293 17.6098 13.6339 -180.086 6.54127 -177.46
lowerback 5.36316 -2.76573 -4.08511
upperback 2.42264 -3.74993 1.67287
thorax -0.123541 -1.87195 4.20461
lowerneck -4.59803 -12.4871 -15.1025
upperneck 10.9065 -15.6045 3.12958
head 5.48393 -8.03241 2.16489
rclavicle -4.98204e-014 6.95746e-015
rhumerus -29.1227 -63.5106 -12.8522
rradius 30.8291
rwrist -48.473
rhand -13.3478 19.0709
rfingers 7.12502
rthumb 12.758 -10.5193
lclavicle -4.98204e-014 6.95746e-015
lhumerus -29.4972 58.6825 24.0579
lradius 34.8531
lwrist 40.002
lhand 2.61697 46.0932
lfingers 7.12502
lthumb 28.0945 74.009
rfemur -19.3424 3.65714 8.93673
rtibia 36.0142
rfoot -8.513 -8.06187
rtoes 6.52601
lfemur 0.641642 3.26679 -17.1595
ltibia 29.072
lfoot -23.7419 4.69048
ltoes -8.29729
285
root 5.683 17.6126 13.6371 -179.993 6.75361 -177.243
lowerback 5.61077 -2.84029 -4.07777
upperback 2.19093 -3.86726 1.81597
thorax -0.478971 -1.9218 4.37637
lowerneck -4.19871 -12.5692 -15.7837
upperneck 10.9794 -15.6913 3.09698
head 5.50428 -8.10172 2.25621
rclavicle -1.44119e-015 7.95139e-016
rhumerus -28.0761 -62.1712 -14.1276
rradius 31.2028
rwrist -48.796
rhand -12.9989 19.1629
rfingers 7.12502
rthumb 13.0943 -10.406
lclavicle -1.44119e-015 7.95139e-016
lhumerus -31.2764 58.3102 22.2617
lradius 35.2858
lwrist 40.6811
lhand 2.47769 45.8825
lfingers 7.12502
lthumb 27.9613 73.8201
rfemur -19.5972 3.5855 9.22782
rtibia 35.8072
rfoot -8.85746 -8.03333
rtoes 7.10828
lfemur 0.571079 3.47949 -16.9961
ltibia 28.9944
lfoot -23.6311 5.40244
ltoes -11.6446
286
root 5.67201 17.616 13.6384 -179.95 6.85212 -176.705
lowerback 5.89552 -2.95231 -3.69267
upperback 2.0787 -3.99964 2.04591
thorax -0.749893 -1.97699 4.42648
lowerneck -4.21725 -12.5995 -15.9872
upperneck 11.1003 -15.6131 2.54326
head 5.51315 -8.09337 2.11857
rclavicle 1.45858e-014 6.55989e-015
rhumerus -27.2372 -61.119 -15.1357
rradius 31.6545
rwrist -48.9293
rhand -12.6698 18.769
rfingers 7.12502
rthumb 13.4115 -10.7793
lclavicle 1.45858e-014 6.55989e-015
lhumerus -32.753 57.9865 20.815
lradius 35.7995
lwrist 41.4381
lhand 2.4045 45.7595
lfingers 7.12502
lthumb 27.8914 73.7085
rfemur -19.6702 3.3373 9.89756
rtibia 35.4879
rfoot -8.82744 -8.068
rtoes 6.51142
lfemur 0.593243 3.49019 -16.4781
ltibia 28.9328
lfoot -23.5974 5.85981
ltoes -13.3193
287
root 5.66013 17.6221 13.6317 -179.839 6.88616 -176.453
lowerback 5.83942 -2.99831 -3.41673
upperback 2.13607 -4.03783 2.10239
thorax -0.671211 -1.99587 4.32646
lowerneck -4.71803 -12.6938 -15.7296
upperneck 11.3498 -15.5318 1.62047
head 5.57513 -8.08436 1.77572
rclavicle 4.45278e-014 -1.63003e-014
rhumerus -26.984 -60.3966 -15.6288
rradius 32.0903
rwrist -49.0668
rhand -12.5896 19.0001
rfingers 7.12502
rthumb 13.4888 -10.5431
lclavicle 4.45278e-014 -1.63003e-014
lhumerus -33.3407 58.2518 20.0035
lradius 36.2123
lwrist 41.75
lhand 2.35152 45.7706
lfingers 7.12502
lthumb 27.8407 73.7278
rfemur -19.8158 3.00979 10.215
rtibia 35.0787
rfoot -8.58372 -8.17912
rtoes 5.20659
lfemur 0.558546 3.37058 -16.2967
ltibia 28.8668
lfoot -23.5148 6.08142
ltoes -15.4376
288
root 5.64927 17.629 13.6207 -179.607 7.08455 -176.662
lowerback 5.55038 -2.96109 -3.54023
upperback 2.17582 -3.9925 2.01296
thorax -0.471881 -1.98076 4.28149
lowerneck -5.37466 -12.576 -15.7647
upperneck 11.6948 -15.1869 1.25161
head 5.74009 -7.93695 1.65201
rclavicle 8.00854e-014 -1.45113e-014
rhumerus -26.9731 -60.2134 -15.8429
rradius 32.474
rwrist -48.8391
rhand -12.5816 19.6932
rfingers 7.12502
rthumb 13.4965 -9.84942
lclavicle 8.00854e-014 -1.45113e-014
lhumerus -33.7654 58.8106 19.191
lradius 36.4901
lwrist 41.6132
lhand 2.52645 45.6711
lfingers 7.12502
lthumb 28.008 73.6011
rfemur -20.1905 2.78679 9.99904
rtibia 34.6161
rfoot -8.47483 -8.18514
rtoes 4.21386
lfemur 0.463443 3.25247 -16.6659
ltibia 28.7201
lfoot -23.429 6.19344
ltoes -16.08
289
root 5.64209 17.6348 13.6128 -179.422 7.33077 -176.604
lowerback 5.44325 -2.85853 -3.41297
upperback 2.14284 -3.85012 1.98916
thorax -0.471213 -1.90938 4.17379
lowerneck -6.01953 -12.2586 -15.6698
upperneck 12.1248 -14.5955 0.953945
head 5.90802 -7.66624 1.56009
rclavicle -8.80616e-014 8.15017e-015
rhumerus -27.556 -60.0594 -15.486
rradius 33.0117
rwrist -48.6249
rhand -12.4338 19.7107
rfingers 7.12502
rthumb 13.6389 -9.82243
lclavicle -8.80616e-014 8.15017e-015
lhumerus -33.886 58.868 18.7296
lradius 36.8059
lwrist 41.629
lhand 3.01265 45.6327
lfingers 7.12502
lthumb 28.4726 73.4859
rfemur -20.4546 2.64874 10.1161
rtibia 34.1029
rfoot -8.79831 -8.17023
rtoes 3.0509
lfemur 0.490172 3.21375 -16.7113
ltibia 28.4932
lfoot -23.4224 6.34593
ltoes -13.799
290
root 5.63733 17.6399 13.6053 -179.35 7.43315 -176.44
lowerback 5.34888 -2.71724 -3.12809
upperback 2.25207 -3.64105 1.90729
thorax -0.350579 -1.80478 3.91076
lowerneck -6.8984 -11.9675 -14.9956
upperneck 12.4738 -14.049 0.415827
head 6.03289 -7.40874 1.30424
rclavicle -1.63997e-015 7.95139e-016
rhumerus -28.7101 -59.743 -14.6892
rradius 33.627
rwrist -48.7993
rhand -12.1673 19.3125
rfingers 7.12502
rthumb 13.8958 -10.2032
lclavicle -1.63997e-015 7.95139e-016
lhumerus -33.084 58.6099 19.1716
lradius 37.2044
lwrist 41.9712
lhand 3.61189 45.6997
lfingers 7.12502
lthumb 29.0451 73.4557
rfemur -20.5242 2.44239 10.3654
rtibia 33.5515
rfoot -9.19997 -8.26017
rtoes 1.39734
lfemur 0.61383 3.16789 -16.6004
ltibia 28.217
lfoot -23.3304 6.61933
ltoes -13.3604
291
root 5.63284 17.6475 13.5948 -179.336 7.55598 -176.526
lowerback 5.31008 -2.58722 -3.12811
upperback 2.35995 -3.46427 1.78627
thorax -0.241528 -1.71803 3.77226
lowerneck -7.33887 -11.6711 -15.0845
upperneck 12.4646 -13.6485 0.870008
head 6.10998 -7.19348 1.4742
rclavicle 7.97623e-015 -8.34896e-015
rhumerus -29.4851 -59.1359 -14.1821
rradius 34.0991
rwrist -48.9762
rhand -12.1218 19.3574
rfingers 7.12502
rthumb 13.9397 -10.1554
lclavicle 7.97623e-015 -8.34896e-015
lhumerus -32.4617 58.2334 19.5889
lradius 37.7016
lwrist 42.3857
lhand 3.97892 45.4987
lfingers 7.12502
lthumb 29.3956 73.1937
rfemur -20.5757 2.3468 10.3164
rtibia 32.9418
rfoot -9.13797 -8.44097
rtoes 0.785566
lfemur 0.790434 2.96296 -16.7567
ltibia 27.9649
lfoot -23.4239 6.52519
ltoes -11.5284
292
root 5.62973 17.654 13.5854 -179.371 7.71278 -176.862
lowerback 5.41258 -2.47852 -3.46989
upperback 2.32277 -3.34387 1.68675
thorax -0.332957 -1.65882 3.8623
lowerneck -7.01254 -11.3807 -17.3576
upperneck 12.4931 -13.4204 3.38812
head 6.38242 -7.04023 2.60441
rclavicle -2.58917e-014 1.37161e-014
rhumerus -29.8112 -58.0506 -14.058
rradius 34.5626
rwrist -49.1356
rhand -12.5628 19.8277
rfingers 7.12502
rthumb 13.5146 -9.71373
lclavicle -2.58917e-014 1.37161e-014
lhumerus -32.3971 57.6376 19.6603
lradius 38.284
lwrist 42.5276
lhand 4.08426 45.385
lfingers 7.12502
lthumb 29.4961 73.0623
rfemur -20.6007 2.32165 9.98369
rtibia 32.2679
rfoot -8.91111 -8.63554
rtoes 1.3007
lfemur 0.978544 2.82904 -17.171
ltibia 27.7367
lfoot -23.5841 6.34736
ltoes -7.87121
